<svg width="128" height="128" viewBox="0 0 128 128" fill="none" xmlns="http://www.w3.org/2000/svg">
  <g clip-path="url(#clip0_4_2)">
    <rect width="128" height="128" fill="#1A1A1A" />
    <path
      d="M54.4063 41.3806V41.683C54.4063 44.4936 56.6319 46.7996 59.4409 46.8991C60.3746 46.9322 61.2823 47.2153 62.0693 47.719L65.1338 49.68C67.5186 51.206 70.6724 50.6711 72.4206 48.4441C73.1807 47.4759 73.5938 46.2807 73.5938 45.0498V41.3806V24H81.1979V51.5651C81.1979 56.0482 79.9023 59.8021 77.5456 62.5976C73.3433 67.5822 67.8021 72.6145 67.8021 79.1341V93.3581C67.8022 97.9812 71.55 101.729 76.1732 101.729V104H64H51.8268V101.729C56.45 101.729 60.1978 97.9812 60.1979 93.3581V79.1706C60.1979 72.6389 54.6297 67.6036 50.431 62.6002C48.091 59.8117 46.8021 56.0626 46.8021 51.5651V24H54.4063V41.3806Z"
      fill="#8B2635" />
    <path
      d="M117.901 8.23947L132.954 20.7384L132.954 -5.26741L103.185 -5.26741L128.72 26.719L119.716 17.3785L132.954 35.2532L132.954 23.8295L117.901 8.23947Z"
      fill="#8B2635" />
    <path
      d="M33.4326 129.404L-0.337482 80.2618L-0.337483 89.0928L23.0481 122.618L-0.337483 98.169L-0.337485 129.404L12.9089 129.404L10.047 122.209L14.7896 129.404L33.4326 129.404Z"
      fill="#8B2635" />
    <path d="M111.08 116.802L128.72 133.267L134.456 131.097L111.08 116.802Z" fill="#8B2635" />
    <path d="M8.68338 18.6091L-0.337479 2.85303L-6.45593 3.26895L8.68338 18.6091Z" fill="#8B2635" />
  </g>
  <defs>
    <clipPath id="clip0_4_2">
      <rect width="128" height="128" fill="white" />
    </clipPath>
  </defs>
</svg>